<svg xmlns="http://www.w3.org/2000/svg" xmlns:xlink="http://www.w3.org/1999/xlink" width="1080" zoomAndPan="magnify" viewBox="0 0 810 809.999993" height="1080" preserveAspectRatio="xMidYMid meet" version="1.0"><defs><clipPath id="fc24c29e73"><path d="M 225.820312 265 L 443 265 L 443 446 L 225.820312 446 Z M 225.820312 265 " clip-rule="nonzero"/></clipPath></defs><path fill="#eba6a6" d="M 311.367188 252.363281 C 379.953125 214.394531 471.835938 253.839844 519.714844 297.574219 C 533.394531 310.0625 566.5625 341.226562 574.394531 391.179688 C 584.117188 453.226562 552.273438 528.429688 479.246094 560.601562 C 399.753906 595.617188 310.871094 562.429688 269.273438 508.566406 C 230.367188 458.1875 238.15625 398.871094 240.9375 377.679688 C 244.199219 352.816406 253.90625 284.175781 311.367188 252.363281 " fill-opacity="1" fill-rule="nonzero"/><g clip-path="url(#fc24c29e73)"><path fill="#cf1616" d="M 233.984375 445.464844 L 431.539062 417.992188 C 436.5 417.359375 440.21875 413.140625 440.21875 408.136719 L 442.929688 270.339844 C 442.929688 270.339844 438.425781 267.09375 435.875 265.851562 C 434.574219 265.21875 433.078125 264.9375 431.523438 265.136719 L 234.554688 290.257812 C 229.59375 290.890625 225.878906 295.109375 225.878906 300.109375 L 225.878906 435.453125 C 225.878906 437.875 226.984375 440.007812 228.695312 441.417969 C 230.273438 442.714844 233.984375 445.464844 233.984375 445.464844 " fill-opacity="1" fill-rule="nonzero"/></g><path fill="#b65959" d="M 240.015625 447.296875 L 436.980469 422.179688 C 441.941406 421.542969 445.660156 417.324219 445.660156 412.324219 L 445.660156 276.980469 C 445.660156 272.332031 441.578125 268.734375 436.964844 269.324219 L 239.996094 294.445312 C 235.035156 295.078125 231.316406 299.296875 231.316406 304.296875 L 231.316406 439.640625 C 231.316406 444.292969 235.402344 447.886719 240.015625 447.296875 " fill-opacity="1" fill-rule="nonzero"/><path fill="#000000" d="M 445.660156 307.550781 C 445.308594 307.550781 445.027344 307.265625 445.027344 306.917969 L 445.027344 276.980469 C 445.027344 274.945312 444.152344 273.007812 442.625 271.660156 C 441.09375 270.316406 439.0625 269.691406 437.042969 269.949219 L 282.40625 289.671875 C 282.058594 289.714844 281.742188 289.472656 281.699219 289.125 C 281.65625 288.777344 281.898438 288.460938 282.246094 288.414062 L 436.882812 268.695312 C 439.265625 268.394531 441.660156 269.128906 443.460938 270.710938 C 445.261719 272.296875 446.292969 274.582031 446.292969 276.980469 L 446.292969 306.917969 C 446.292969 307.265625 446.007812 307.550781 445.660156 307.550781 " fill-opacity="1" fill-rule="nonzero"/><path fill="#ffffff" d="M 244.199219 441.71875 L 432.277344 417.734375 C 435.882812 417.273438 438.585938 414.207031 438.585938 410.566406 L 438.585938 280.015625 C 438.585938 276.910156 435.859375 274.507812 432.777344 274.902344 L 244.703125 298.886719 C 241.09375 299.347656 238.394531 302.417969 238.394531 306.054688 L 238.394531 436.605469 C 238.394531 439.710938 241.121094 442.113281 244.199219 441.71875 " fill-opacity="1" fill-rule="nonzero"/><path fill="#b65959" d="M 354.925781 527.003906 L 557.496094 500.878906 C 559.082031 500.675781 559.976562 499.351562 559.957031 498.023438 C 559.945312 497.105469 559.867188 490.660156 559.867188 490.660156 L 452.761719 429.425781 C 447.390625 426.359375 440.449219 425.175781 434.316406 425.960938 L 234.304688 451.761719 C 233.097656 451.917969 232.066406 452.699219 231.589844 453.816406 L 231.269531 454.570312 C 231.269531 454.570312 231.441406 459.945312 231.371094 461.203125 C 231.316406 462.183594 231.757812 463.199219 232.785156 463.785156 L 337.207031 523.492188 C 342.574219 526.558594 348.792969 527.792969 354.925781 527.003906 " fill-opacity="1" fill-rule="nonzero"/><path fill="#ffffff" d="M 354.925781 519.828125 L 556.777344 493.753906 C 559.453125 493.410156 560.160156 489.855469 557.8125 488.515625 L 453.953125 429.195312 C 448.585938 426.132812 442.363281 424.898438 436.234375 425.683594 L 234.386719 451.757812 C 231.707031 452.101562 231 455.65625 233.347656 456.996094 L 337.210938 516.316406 C 342.574219 519.378906 348.796875 520.613281 354.925781 519.828125 " fill-opacity="1" fill-rule="nonzero"/><path fill="#000000" d="M 351.359375 520.6875 C 346.3125 520.6875 341.285156 519.375 336.894531 516.863281 L 233.035156 457.546875 C 231.722656 456.796875 231.070312 455.359375 231.359375 453.882812 C 231.652344 452.402344 232.808594 451.324219 234.304688 451.132812 L 436.152344 425.054688 C 442.382812 424.257812 448.8125 425.535156 454.265625 428.648438 L 461.433594 432.742188 C 461.738281 432.917969 461.84375 433.300781 461.671875 433.605469 C 461.496094 433.910156 461.113281 434.015625 460.808594 433.839844 L 453.640625 429.746094 C 448.421875 426.769531 442.273438 425.546875 436.316406 426.3125 L 234.46875 452.386719 C 233.316406 452.53125 232.75 453.382812 232.601562 454.125 C 232.453125 454.871094 232.65625 455.871094 233.660156 456.445312 L 337.523438 515.765625 C 342.738281 518.746094 348.886719 519.964844 354.84375 519.203125 L 503.78125 499.960938 C 504.121094 499.914062 504.441406 500.160156 504.488281 500.507812 C 504.53125 500.855469 504.289062 501.171875 503.941406 501.214844 L 355.007812 520.457031 C 353.796875 520.609375 352.574219 520.6875 351.359375 520.6875 " fill-opacity="1" fill-rule="nonzero"/><path fill="#b65959" d="M 315.40625 486.902344 L 490.4375 464.125 C 492.855469 463.816406 493.492188 460.605469 491.375 459.394531 L 450.21875 436.128906 C 445.375 433.359375 439.753906 432.246094 434.21875 432.953125 L 259.1875 455.730469 C 256.769531 456.039062 256.132812 459.25 258.25 460.460938 L 299.40625 483.726562 C 304.253906 486.496094 309.871094 487.609375 315.40625 486.902344 " fill-opacity="1" fill-rule="nonzero"/><path fill="#000000" d="M 298.882812 462.300781 C 298.570312 462.300781 298.300781 462.070312 298.257812 461.753906 C 298.210938 461.40625 298.453125 461.085938 298.800781 461.042969 L 386.199219 449.261719 C 386.546875 449.210938 386.863281 449.457031 386.910156 449.804688 C 386.957031 450.152344 386.714844 450.46875 386.367188 450.515625 L 298.96875 462.296875 C 298.941406 462.300781 298.910156 462.300781 298.882812 462.300781 " fill-opacity="1" fill-rule="nonzero"/><path fill="#000000" d="M 355.53125 465.863281 C 355.222656 465.863281 354.949219 465.632812 354.90625 465.316406 C 354.859375 464.96875 355.101562 464.652344 355.449219 464.601562 L 400.832031 458.425781 C 401.175781 458.378906 401.496094 458.625 401.542969 458.96875 C 401.589844 459.316406 401.347656 459.636719 401 459.683594 L 355.621094 465.859375 C 355.589844 465.863281 355.5625 465.863281 355.53125 465.863281 " fill-opacity="1" fill-rule="nonzero"/><path fill="#eba6a6" d="M 400.945312 227.035156 L 278.175781 242.691406 C 274.644531 243.144531 272 246.144531 272 249.703125 L 272 438.269531 L 404.976562 421.308594 L 404.976562 230.585938 C 404.976562 228.429688 403.085938 226.761719 400.945312 227.035156 " fill-opacity="1" fill-rule="nonzero"/><path fill="#000000" d="M 294.898438 241.191406 C 294.585938 241.191406 294.3125 240.957031 294.273438 240.640625 C 294.226562 240.292969 294.472656 239.976562 294.820312 239.929688 L 322.183594 236.441406 C 322.53125 236.398438 322.847656 236.640625 322.890625 236.988281 C 322.9375 237.335938 322.691406 237.652344 322.34375 237.695312 L 294.980469 241.1875 C 294.953125 241.191406 294.925781 241.191406 294.898438 241.191406 " fill-opacity="1" fill-rule="nonzero"/><path fill="#000000" d="M 404.976562 271.40625 C 404.628906 271.40625 404.34375 271.121094 404.34375 270.773438 L 404.34375 230.585938 C 404.34375 229.742188 403.980469 228.933594 403.34375 228.375 C 402.707031 227.816406 401.863281 227.554688 401.023438 227.664062 L 333.292969 236.300781 C 332.945312 236.34375 332.628906 236.101562 332.582031 235.753906 C 332.539062 235.40625 332.785156 235.089844 333.132812 235.046875 L 400.863281 226.40625 C 402.0625 226.253906 403.273438 226.625 404.179688 227.421875 C 405.089844 228.222656 405.609375 229.375 405.609375 230.585938 L 405.609375 270.773438 C 405.609375 271.121094 405.328125 271.40625 404.976562 271.40625 " fill-opacity="1" fill-rule="nonzero"/><path fill="#000000" d="M 404.976562 313.378906 C 404.628906 313.378906 404.34375 313.097656 404.34375 312.746094 L 404.34375 284.113281 C 404.34375 283.765625 404.628906 283.480469 404.976562 283.480469 C 405.324219 283.480469 405.609375 283.765625 405.609375 284.113281 L 405.609375 312.746094 C 405.609375 313.097656 405.324219 313.378906 404.976562 313.378906 " fill-opacity="1" fill-rule="nonzero"/><path fill="#ffffff" d="M 270.652344 269.691406 C 256.296875 279.890625 249.152344 298.28125 254.421875 314.09375 C 256.820312 321.277344 261.429688 326.855469 267.292969 330.46875 C 267.453125 330.566406 267.617188 330.660156 267.78125 330.746094 L 270.867188 332.363281 C 279.390625 336.179688 289.871094 336.277344 299.976562 331.757812 C 319.035156 323.230469 329.84375 299.328125 323.453125 283.214844 C 318.460938 270.632812 312.847656 266.414062 302.449219 263.21875 C 286.574219 258.328125 270.652344 269.691406 270.652344 269.691406 " fill-opacity="1" fill-rule="nonzero"/><path fill="#cf1616" d="M 288.097656 319.296875 C 278.855469 320.429688 270.066406 322.75 262.117188 325.953125 C 263.695312 327.488281 265.429688 328.832031 267.292969 329.980469 C 267.453125 330.078125 267.617188 330.171875 267.78125 330.257812 L 270.867188 331.875 C 279.390625 335.691406 289.382812 335.855469 299.488281 331.332031 C 305.335938 328.71875 310.40625 324.652344 314.441406 319.808594 C 306.285156 318.414062 297.6875 318.125 288.097656 319.296875 " fill-opacity="1" fill-rule="nonzero"/><path fill="#000000" d="M 263.273438 326.175781 C 264.621094 327.394531 266.078125 328.492188 267.625 329.441406 C 267.773438 329.535156 267.921875 329.617188 268.074219 329.699219 L 271.160156 331.316406 C 279.917969 335.238281 289.636719 335.046875 299.230469 330.757812 C 304.402344 328.441406 309.222656 324.824219 313.230469 320.253906 C 305.085938 318.96875 296.878906 318.859375 288.175781 319.925781 C 279.542969 320.980469 271.171875 323.082031 263.273438 326.175781 Z M 284.25 335.390625 C 279.5625 335.390625 274.980469 334.414062 270.609375 332.453125 L 267.488281 330.816406 C 267.308594 330.726562 267.132812 330.625 266.960938 330.523438 C 265.058594 329.347656 263.277344 327.964844 261.675781 326.410156 C 261.519531 326.257812 261.453125 326.042969 261.492188 325.832031 C 261.535156 325.621094 261.679688 325.445312 261.878906 325.367188 C 270.148438 322.035156 278.945312 319.78125 288.023438 318.671875 L 288.097656 319.296875 L 288.023438 318.671875 C 297.242188 317.542969 305.917969 317.710938 314.546875 319.183594 C 314.769531 319.222656 314.957031 319.378906 315.035156 319.589844 C 315.113281 319.800781 315.070312 320.039062 314.925781 320.214844 C 310.660156 325.335938 305.410156 329.378906 299.746094 331.914062 C 294.570312 334.230469 289.351562 335.390625 284.25 335.390625 " fill-opacity="1" fill-rule="nonzero"/><path fill="#000000" d="M 312.007812 292.9375 C 308.445312 280.550781 301.09375 264.652344 287.308594 268.480469 C 274.085938 272.152344 267.863281 287.453125 265.003906 299.0625 C 263.265625 306.121094 268.484375 312.097656 275.542969 311.234375 L 301.425781 308.070312 C 308.644531 307.1875 313.9375 299.644531 312.007812 292.9375 " fill-opacity="1" fill-rule="nonzero"/><path fill="#ffffff" d="M 300.601562 279.476562 C 300.59375 279.449219 300.582031 279.386719 300.582031 279.386719 L 277.082031 282.207031 C 277.082031 282.207031 277.070312 282.246094 277.066406 282.261719 C 276.757812 283.472656 276.589844 284.730469 276.582031 286.007812 L 276.546875 292.894531 C 276.523438 297.5 278.679688 301.289062 281.964844 303.242188 L 281.867188 321.210938 C 281.851562 324.785156 284.730469 327.332031 288.304688 326.894531 C 291.878906 326.457031 294.789062 323.203125 294.808594 319.628906 L 294.902344 301.925781 C 298.421875 299.183594 300.789062 294.707031 300.8125 289.925781 L 300.851562 282.160156 C 300.859375 281.226562 300.769531 280.332031 300.601562 279.476562 " fill-opacity="1" fill-rule="nonzero"/><path fill="#000000" d="M 287.503906 327.578125 C 285.917969 327.578125 284.449219 327.039062 283.304688 326.019531 C 281.960938 324.824219 281.226562 323.117188 281.234375 321.210938 L 281.328125 303.773438 C 281.328125 303.425781 281.613281 303.144531 281.960938 303.144531 C 281.960938 303.144531 281.960938 303.144531 281.964844 303.144531 C 282.3125 303.144531 282.59375 303.429688 282.59375 303.777344 L 282.5 321.214844 C 282.492188 322.753906 283.078125 324.121094 284.144531 325.074219 C 285.226562 326.035156 286.675781 326.457031 288.226562 326.269531 C 291.488281 325.871094 294.15625 322.890625 294.175781 319.628906 L 294.265625 302.125 C 294.269531 301.773438 294.550781 301.492188 294.898438 301.492188 C 294.898438 301.492188 294.902344 301.492188 294.902344 301.492188 C 295.253906 301.496094 295.535156 301.78125 295.53125 302.128906 L 295.441406 319.632812 C 295.421875 323.511719 292.253906 327.050781 288.382812 327.523438 C 288.085938 327.5625 287.792969 327.578125 287.503906 327.578125 " fill-opacity="1" fill-rule="nonzero"/><path fill="#000000" d="M 288.148438 296.796875 C 286.726562 296.796875 285.359375 296.273438 284.242188 295.289062 C 283.980469 295.058594 283.957031 294.65625 284.1875 294.394531 C 284.417969 294.132812 284.820312 294.109375 285.082031 294.339844 C 286.085938 295.226562 287.34375 295.640625 288.621094 295.507812 C 289.824219 295.382812 290.90625 294.785156 291.589844 293.863281 C 291.800781 293.582031 292.195312 293.527344 292.476562 293.734375 C 292.757812 293.945312 292.816406 294.339844 292.605469 294.621094 C 291.707031 295.824219 290.304688 296.605469 288.753906 296.765625 C 288.550781 296.789062 288.351562 296.796875 288.148438 296.796875 " fill-opacity="1" fill-rule="nonzero"/><path fill="#000000" d="M 288.609375 305.226562 C 288.292969 305.226562 288.019531 304.992188 287.980469 304.671875 C 287.941406 304.324219 288.1875 304.007812 288.535156 303.964844 C 294.917969 303.183594 300.144531 296.886719 300.179688 289.921875 L 300.21875 282.15625 C 300.238281 278.804688 298.964844 275.738281 296.726562 273.746094 C 294.699219 271.945312 292.050781 271.140625 289.269531 271.480469 C 282.660156 272.289062 277.253906 278.808594 277.214844 286.015625 L 277.179688 292.898438 C 277.152344 297.785156 279.757812 301.921875 283.816406 303.4375 C 284.144531 303.558594 284.308594 303.921875 284.1875 304.25 C 284.066406 304.578125 283.703125 304.746094 283.371094 304.621094 C 278.8125 302.917969 275.886719 298.316406 275.914062 292.890625 L 275.949219 286.007812 C 275.988281 278.1875 281.898438 271.105469 289.117188 270.222656 C 292.265625 269.839844 295.265625 270.753906 297.566406 272.800781 C 300.078125 275.035156 301.503906 278.445312 301.484375 282.164062 L 301.445312 289.929688 C 301.40625 297.507812 295.683594 304.367188 288.6875 305.222656 C 288.660156 305.226562 288.632812 305.226562 288.609375 305.226562 " fill-opacity="1" fill-rule="nonzero"/><path fill="#000000" d="M 283.980469 335.296875 C 279.421875 335.296875 274.960938 334.429688 270.863281 332.691406 C 262.765625 329.246094 256.695312 322.722656 253.765625 314.316406 C 247.378906 295.972656 257.746094 273.871094 276.882812 265.046875 C 286.570312 260.582031 297.265625 260.203125 306.226562 264.011719 C 314.324219 267.453125 320.394531 273.976562 323.324219 282.386719 C 325.453125 288.503906 325.792969 295.289062 324.300781 302.003906 C 324.222656 302.34375 323.886719 302.558594 323.542969 302.484375 C 323.203125 302.40625 322.988281 302.070312 323.0625 301.730469 C 324.503906 295.242188 324.179688 288.699219 322.125 282.800781 C 319.316406 274.734375 313.496094 268.476562 305.730469 265.175781 C 297.097656 261.507812 286.777344 261.878906 277.410156 266.199219 C 258.851562 274.753906 248.78125 296.152344 254.960938 313.902344 C 257.769531 321.964844 263.59375 328.222656 271.359375 331.523438 C 279.988281 335.191406 290.3125 334.820312 299.679688 330.5 C 307.703125 326.800781 314.519531 320.46875 318.871094 312.667969 C 319.042969 312.363281 319.425781 312.253906 319.734375 312.425781 C 320.039062 312.59375 320.148438 312.980469 319.976562 313.285156 C 315.496094 321.316406 308.476562 327.839844 300.207031 331.652344 C 294.949219 334.074219 289.394531 335.296875 283.980469 335.296875 " fill-opacity="1" fill-rule="nonzero"/><path fill="#ffffff" d="M 392.78125 270.179688 L 338.488281 277.101562 L 338.488281 268.171875 L 392.78125 261.25 L 392.78125 270.179688 " fill-opacity="1" fill-rule="nonzero"/><path fill="#ffffff" d="M 392.78125 309.554688 L 338.488281 316.480469 L 338.488281 285.421875 L 392.78125 278.496094 L 392.78125 309.554688 " fill-opacity="1" fill-rule="nonzero"/><path fill="#b65959" d="M 330.082031 419.605469 L 284.199219 425.460938 L 284.199219 371.871094 L 330.082031 366.015625 L 330.082031 419.605469 " fill-opacity="1" fill-rule="nonzero"/><path fill="#b65959" d="M 379.097656 413.355469 L 333.210938 419.207031 L 333.210938 365.617188 L 379.097656 359.765625 L 379.097656 413.355469 " fill-opacity="1" fill-rule="nonzero"/><path fill="#b65959" d="M 428.113281 407.101562 L 382.226562 412.957031 L 382.226562 359.367188 L 428.113281 353.515625 L 428.113281 407.101562 " fill-opacity="1" fill-rule="nonzero"/><path fill="#ffffff" d="M 298.9375 349.921875 C 298.9375 353.992188 295.636719 357.710938 291.566406 358.230469 C 287.496094 358.75 284.199219 355.871094 284.199219 351.804688 C 284.199219 347.734375 287.496094 344.011719 291.566406 343.492188 C 295.636719 342.976562 298.9375 345.851562 298.9375 349.921875 " fill-opacity="1" fill-rule="nonzero"/><path fill="#ffffff" d="M 322.398438 346.929688 C 322.398438 351 319.097656 354.722656 315.027344 355.238281 C 310.957031 355.757812 307.660156 352.882812 307.660156 348.808594 C 307.660156 344.738281 310.957031 341.019531 315.027344 340.5 C 319.097656 339.980469 322.398438 342.859375 322.398438 346.929688 " fill-opacity="1" fill-rule="nonzero"/><path fill="#ffffff" d="M 345.859375 343.9375 C 345.859375 348.007812 342.558594 351.726562 338.488281 352.25 C 334.417969 352.765625 331.121094 349.886719 331.121094 345.816406 C 331.121094 341.75 334.417969 338.027344 338.488281 337.507812 C 342.558594 336.988281 345.859375 339.867188 345.859375 343.9375 " fill-opacity="1" fill-rule="nonzero"/><path fill="#ffffff" d="M 369.320312 340.945312 C 369.320312 345.015625 366.019531 348.738281 361.949219 349.253906 C 357.878906 349.773438 354.582031 346.894531 354.582031 342.824219 C 354.582031 338.753906 357.878906 335.035156 361.949219 334.515625 C 366.019531 333.996094 369.320312 336.875 369.320312 340.945312 " fill-opacity="1" fill-rule="nonzero"/><path fill="#ffffff" d="M 392.78125 337.953125 C 392.78125 342.023438 389.480469 345.742188 385.410156 346.265625 C 381.339844 346.78125 378.042969 343.902344 378.042969 339.832031 C 378.042969 335.761719 381.339844 332.042969 385.410156 331.523438 C 389.480469 331.003906 392.78125 333.882812 392.78125 337.953125 " fill-opacity="1" fill-rule="nonzero"/><path fill="#cf1616" d="M 520.777344 302.289062 C 521.203125 309.042969 515.632812 314.609375 508.878906 314.183594 C 503.308594 313.832031 498.792969 309.3125 498.441406 303.742188 C 498.015625 296.988281 503.582031 291.417969 510.339844 291.847656 C 515.90625 292.199219 520.425781 296.71875 520.777344 302.289062 Z M 526.035156 362.132812 C 542.390625 355.523438 553.945312 339.539062 553.945312 320.871094 C 553.945312 297.027344 535.320312 277.5625 511.773438 276.40625 C 485.441406 275.117188 463.578125 297.125 465.0625 323.449219 C 466.050781 340.996094 477.085938 355.816406 492.65625 362.125 C 494.035156 362.6875 494.949219 364.019531 494.949219 365.507812 L 494.949219 471.503906 C 494.949219 472.824219 495.660156 474.035156 496.808594 474.679688 L 502.46875 481.625 C 502.46875 481.625 507.371094 481.664062 507.921875 481.691406 C 508.59375 481.726562 509.402344 481.367188 510.003906 481.03125 L 521.882812 474.679688 C 523.039062 474.035156 523.757812 472.816406 523.757812 471.492188 L 523.757812 464.652344 C 523.757812 463.628906 523.328125 462.652344 522.574219 461.960938 L 517.328125 457.167969 C 516.574219 456.476562 516.140625 455.503906 516.140625 454.480469 L 516.140625 446.59375 C 516.140625 445.53125 516.605469 444.519531 517.414062 443.828125 L 522.488281 439.484375 C 523.292969 438.792969 523.757812 437.785156 523.757812 436.71875 L 523.757812 431.921875 C 523.757812 429.910156 522.125 428.28125 520.117188 428.28125 C 518.105469 428.28125 516.472656 426.648438 516.472656 424.636719 L 516.472656 420.089844 C 516.472656 418.078125 518.105469 416.445312 520.117188 416.445312 C 522.125 416.445312 523.757812 414.816406 523.757812 412.804688 L 523.757812 407.765625 C 523.757812 406.726562 523.3125 405.734375 522.535156 405.042969 L 517.359375 400.4375 C 516.585938 399.75 516.140625 398.757812 516.140625 397.71875 L 516.140625 390.300781 C 516.140625 389.300781 516.550781 388.34375 517.277344 387.65625 L 522.625 382.582031 C 523.347656 381.890625 523.757812 380.9375 523.757812 379.9375 L 523.757812 365.507812 C 523.757812 364.023438 524.65625 362.691406 526.035156 362.132812 " fill-opacity="1" fill-rule="nonzero"/><path fill="#ffffff" d="M 514.152344 302.289062 C 514.578125 309.046875 509.011719 314.609375 502.257812 314.183594 C 496.6875 313.832031 492.171875 309.3125 491.816406 303.742188 C 491.390625 296.988281 496.957031 291.421875 503.714844 291.847656 C 509.28125 292.199219 513.800781 296.71875 514.152344 302.289062 Z M 519.40625 362.136719 C 535.765625 355.523438 547.320312 339.542969 547.320312 320.871094 C 547.320312 297.027344 528.699219 277.5625 505.148438 276.410156 C 478.816406 275.117188 456.957031 297.125 458.4375 323.449219 C 459.429688 340.996094 470.460938 355.816406 486.03125 362.125 C 487.414062 362.6875 488.324219 364.019531 488.324219 365.507812 L 488.324219 471.503906 C 488.324219 472.824219 489.039062 474.039062 490.1875 474.683594 L 500.886719 480.679688 C 501.988281 481.296875 503.332031 481.300781 504.4375 480.6875 L 515.257812 474.679688 C 516.417969 474.039062 517.132812 472.816406 517.132812 471.496094 L 517.132812 464.652344 C 517.132812 463.628906 516.703125 462.652344 515.949219 461.960938 L 510.703125 457.167969 C 509.949219 456.480469 509.519531 455.503906 509.519531 454.480469 L 509.519531 446.59375 C 509.519531 445.53125 509.980469 444.523438 510.792969 443.828125 L 515.859375 439.488281 C 516.667969 438.792969 517.132812 437.785156 517.132812 436.71875 L 517.132812 431.921875 C 517.132812 429.914062 515.503906 428.28125 513.492188 428.28125 C 511.480469 428.28125 509.847656 426.648438 509.847656 424.636719 L 509.847656 420.089844 C 509.847656 418.078125 511.480469 416.445312 513.492188 416.445312 C 515.503906 416.445312 517.132812 414.816406 517.132812 412.804688 L 517.132812 407.765625 C 517.132812 406.726562 516.6875 405.734375 515.914062 405.042969 L 510.738281 400.441406 C 509.960938 399.75 509.519531 398.761719 509.519531 397.71875 L 509.519531 390.300781 C 509.519531 389.300781 509.929688 388.34375 510.652344 387.660156 L 516 382.582031 C 516.722656 381.890625 517.132812 380.941406 517.132812 379.9375 L 517.132812 365.507812 C 517.132812 364.023438 518.035156 362.691406 519.40625 362.136719 " fill-opacity="1" fill-rule="nonzero"/><path fill="#000000" d="M 503.003906 292.457031 C 500.199219 292.457031 497.503906 293.5625 495.519531 295.550781 C 493.375 297.695312 492.257812 300.664062 492.445312 303.703125 C 492.785156 308.984375 497.015625 313.21875 502.296875 313.550781 C 505.339844 313.738281 508.308594 312.625 510.449219 310.484375 C 512.59375 308.339844 513.714844 305.367188 513.523438 302.328125 C 513.1875 297.046875 508.953125 292.8125 503.671875 292.480469 C 503.449219 292.464844 503.222656 292.457031 503.003906 292.457031 Z M 502.96875 314.839844 C 502.71875 314.839844 502.46875 314.832031 502.214844 314.816406 C 496.304688 314.441406 491.558594 309.699219 491.183594 303.785156 C 490.96875 300.382812 492.222656 297.054688 494.625 294.65625 C 497.023438 292.253906 500.351562 291 503.753906 291.21875 C 509.667969 291.589844 514.410156 296.335938 514.785156 302.25 C 514.996094 305.652344 513.746094 308.976562 511.347656 311.378906 C 509.121094 313.601562 506.101562 314.839844 502.96875 314.839844 Z M 502.996094 276.988281 C 491.363281 276.988281 480.097656 281.671875 471.808594 290.027344 C 463.015625 298.882812 458.375 311.050781 459.070312 323.410156 C 460.023438 340.265625 470.699219 355.234375 486.269531 361.539062 C 487.902344 362.203125 488.957031 363.761719 488.957031 365.507812 L 488.957031 471.503906 C 488.957031 472.59375 489.546875 473.597656 490.496094 474.128906 L 501.195312 480.128906 C 502.101562 480.632812 503.222656 480.636719 504.128906 480.136719 L 514.953125 474.125 C 515.90625 473.597656 516.5 472.589844 516.5 471.496094 L 516.5 464.652344 C 516.5 463.808594 516.144531 463 515.523438 462.429688 L 510.273438 457.636719 C 509.390625 456.828125 508.886719 455.679688 508.886719 454.480469 L 508.886719 446.59375 C 508.886719 445.347656 509.429688 444.164062 510.378906 443.351562 L 515.449219 439.007812 C 516.117188 438.433594 516.5 437.601562 516.5 436.71875 L 516.5 431.921875 C 516.5 430.265625 515.152344 428.914062 513.492188 428.914062 C 511.132812 428.914062 509.214844 426.996094 509.214844 424.636719 L 509.214844 420.089844 C 509.214844 417.730469 511.132812 415.8125 513.492188 415.8125 C 515.152344 415.8125 516.5 414.464844 516.5 412.804688 L 516.5 407.765625 C 516.5 406.90625 516.132812 406.085938 515.492188 405.519531 L 510.316406 400.910156 C 509.410156 400.105469 508.886719 398.9375 508.886719 397.71875 L 508.886719 390.300781 C 508.886719 389.132812 509.371094 388.003906 510.214844 387.199219 L 515.5625 382.121094 C 516.160156 381.554688 516.5 380.761719 516.5 379.941406 L 516.5 365.507812 C 516.5 363.757812 517.550781 362.203125 519.171875 361.546875 C 535.886719 354.792969 546.6875 338.824219 546.6875 320.871094 C 546.6875 297.4375 528.429688 278.183594 505.117188 277.039062 C 504.410156 277.003906 503.703125 276.988281 502.996094 276.988281 Z M 502.667969 481.773438 C 501.945312 481.773438 501.222656 481.59375 500.578125 481.234375 L 489.878906 475.234375 C 488.53125 474.480469 487.691406 473.050781 487.691406 471.503906 L 487.691406 365.507812 C 487.691406 364.277344 486.949219 363.179688 485.792969 362.714844 C 469.769531 356.222656 458.785156 340.824219 457.804688 323.484375 C 457.089844 310.761719 461.867188 298.242188 470.90625 289.132812 C 479.953125 280.019531 492.441406 275.144531 505.179688 275.777344 C 529.167969 276.953125 547.953125 296.757812 547.953125 320.871094 C 547.953125 339.34375 536.84375 355.773438 519.648438 362.71875 C 518.503906 363.183594 517.765625 364.277344 517.765625 365.507812 L 517.765625 379.941406 C 517.765625 381.105469 517.28125 382.238281 516.433594 383.042969 L 511.085938 388.117188 C 510.492188 388.683594 510.148438 389.476562 510.148438 390.300781 L 510.148438 397.71875 C 510.148438 398.578125 510.515625 399.398438 511.160156 399.96875 L 516.332031 404.570312 C 517.242188 405.382812 517.765625 406.546875 517.765625 407.765625 L 517.765625 412.804688 C 517.765625 415.160156 515.851562 417.078125 513.492188 417.078125 C 511.832031 417.078125 510.480469 418.429688 510.480469 420.089844 L 510.480469 424.636719 C 510.480469 426.296875 511.832031 427.648438 513.492188 427.648438 C 515.851562 427.648438 517.765625 429.566406 517.765625 431.921875 L 517.765625 436.71875 C 517.765625 437.96875 517.222656 439.152344 516.273438 439.964844 L 511.203125 444.308594 C 510.535156 444.882812 510.148438 445.714844 510.148438 446.59375 L 510.148438 454.480469 C 510.148438 455.324219 510.507812 456.132812 511.128906 456.703125 L 516.375 461.496094 C 517.261719 462.304688 517.765625 463.453125 517.765625 464.652344 L 517.765625 471.496094 C 517.765625 473.046875 516.925781 474.480469 515.566406 475.234375 L 504.742188 481.238281 C 504.105469 481.597656 503.386719 481.773438 502.667969 481.773438 " fill-opacity="1" fill-rule="nonzero"/><path fill="#eba6a6" d="M 498.671875 367.199219 C 496.933594 367.199219 495.523438 368.605469 495.523438 370.34375 L 495.523438 462.917969 C 495.523438 464.65625 496.933594 466.066406 498.671875 466.066406 C 500.40625 466.066406 501.816406 464.65625 501.816406 462.917969 L 501.816406 370.34375 C 501.816406 368.605469 500.40625 367.199219 498.671875 367.199219 " fill-opacity="1" fill-rule="nonzero"/><path fill="#000000" d="M 304.632812 529.785156 C 281.09375 508.085938 293.277344 494.09375 293.277344 494.09375 C 293.277344 494.09375 303.792969 477.058594 340.691406 499.328125 C 377.59375 521.597656 413.308594 513.316406 421.386719 509.980469 C 429.460938 506.640625 457.683594 485.65625 473.59375 484.476562 C 482.441406 483.824219 493.03125 490.476562 483.742188 508.464844 C 464.523438 545.65625 412.335938 549.902344 412.335938 549.902344 C 412.335938 549.902344 387.039062 554.652344 361.050781 550.050781 C 361.050781 550.050781 328.171875 551.480469 304.632812 529.785156 " fill-opacity="1" fill-rule="nonzero"/><path fill="#ffffff" d="M 365.714844 534.226562 L 374.050781 538.890625 L 369.890625 547.539062 L 362.988281 543.121094 L 365.714844 534.226562 " fill-opacity="1" fill-rule="nonzero"/><path fill="#000000" d="M 363.734375 542.847656 L 369.628906 546.621094 L 373.21875 539.152344 L 366.089844 535.164062 Z M 369.890625 548.171875 C 369.769531 548.171875 369.648438 548.136719 369.546875 548.070312 L 362.648438 543.652344 C 362.410156 543.5 362.300781 543.207031 362.382812 542.933594 L 365.109375 534.039062 C 365.164062 533.859375 365.300781 533.710938 365.476562 533.640625 C 365.65625 533.570312 365.855469 533.582031 366.023438 533.675781 L 374.359375 538.339844 C 374.652344 538.5 374.765625 538.863281 374.621094 539.164062 L 370.457031 547.8125 C 370.378906 547.976562 370.234375 548.097656 370.0625 548.148438 C 370.003906 548.164062 369.945312 548.171875 369.890625 548.171875 " fill-opacity="1" fill-rule="nonzero"/><path fill="#cf1616" d="M 370.777344 537.789062 C 371.742188 536.542969 373.628906 536.558594 374.5625 537.828125 L 378.609375 543.316406 L 373.140625 550.355469 L 365.90625 547.027344 C 366.402344 543.90625 368.933594 540.167969 370.777344 537.789062 " fill-opacity="1" fill-rule="nonzero"/><path fill="#ffffff" d="M 369.9375 543.628906 L 372.148438 541.394531 C 372.941406 540.589844 374.1875 540.4375 375.15625 541.023438 L 376.726562 541.976562 L 377.066406 541.246094 C 377.429688 540.453125 378.328125 540.0625 379.15625 540.335938 C 384.195312 542.023438 400.941406 547.792969 406.542969 551.941406 C 413.167969 556.847656 408.460938 567.769531 396.910156 566.65625 C 387.75 565.769531 375.238281 555.5625 370.4375 551.359375 C 369.496094 550.535156 369.734375 549.011719 370.882812 548.507812 L 370.894531 548.503906 L 369.671875 546.746094 C 368.996094 545.777344 369.109375 544.46875 369.9375 543.628906 " fill-opacity="1" fill-rule="nonzero"/><path fill="#000000" d="M 369.9375 543.628906 L 369.941406 543.628906 Z M 373.886719 541.300781 C 373.414062 541.300781 372.949219 541.484375 372.597656 541.839844 L 370.390625 544.074219 C 369.777344 544.699219 369.691406 545.667969 370.1875 546.382812 L 371.410156 548.140625 C 371.519531 548.292969 371.550781 548.488281 371.503906 548.671875 C 371.453125 548.851562 371.324219 549 371.15625 549.078125 C 370.789062 549.238281 370.558594 549.539062 370.5 549.914062 C 370.441406 550.285156 370.570312 550.636719 370.855469 550.882812 C 375.730469 555.148438 388.027344 565.164062 396.96875 566.023438 C 403.570312 566.664062 407.285156 563.308594 408.460938 560.246094 C 409.585938 557.316406 408.707031 554.332031 406.164062 552.449219 C 400.640625 548.359375 383.941406 542.605469 378.957031 540.9375 C 378.433594 540.765625 377.871094 541.011719 377.636719 541.507812 L 377.300781 542.242188 C 377.226562 542.402344 377.082031 542.527344 376.910156 542.582031 C 376.738281 542.632812 376.550781 542.609375 376.398438 542.515625 L 374.828125 541.566406 C 374.535156 541.386719 374.210938 541.300781 373.886719 541.300781 Z M 398.574219 567.371094 C 398.019531 567.371094 397.445312 567.339844 396.847656 567.285156 C 387.542969 566.386719 374.988281 556.183594 370.019531 551.835938 C 369.414062 551.308594 369.128906 550.515625 369.25 549.71875 C 369.332031 549.171875 369.601562 548.6875 370 548.328125 L 369.152344 547.105469 C 368.304688 545.890625 368.445312 544.242188 369.488281 543.1875 L 371.699219 540.949219 C 372.703125 539.933594 374.261719 539.738281 375.484375 540.484375 L 376.449219 541.066406 L 376.488281 540.980469 C 376.988281 539.894531 378.222656 539.359375 379.355469 539.738281 C 384.386719 541.417969 401.246094 547.230469 406.917969 551.433594 C 409.9375 553.667969 410.980469 557.21875 409.640625 560.699219 C 408.414062 563.894531 404.8125 567.371094 398.574219 567.371094 " fill-opacity="1" fill-rule="nonzero"/><path fill="#000000" d="M 384.308594 556.195312 C 384.21875 556.195312 384.125 556.175781 384.039062 556.132812 C 383.722656 555.984375 383.589844 555.605469 383.738281 555.292969 L 387.480469 547.421875 C 387.632812 547.105469 388.007812 546.972656 388.324219 547.121094 C 388.640625 547.269531 388.773438 547.648438 388.625 547.964844 L 384.882812 555.835938 C 384.773438 556.0625 384.546875 556.195312 384.308594 556.195312 " fill-opacity="1" fill-rule="nonzero"/><path fill="#ffffff" d="M 401.652344 534.167969 C 401.476562 534.167969 401.300781 534.09375 401.175781 533.953125 L 399.953125 532.566406 C 399.839844 532.433594 399.78125 532.261719 399.800781 532.085938 C 399.816406 531.914062 399.902344 531.753906 400.042969 531.644531 L 438.953125 501.621094 C 439.230469 501.40625 439.628906 501.457031 439.839844 501.734375 C 440.054688 502.011719 440.003906 502.410156 439.726562 502.621094 L 401.351562 532.234375 L 402.125 533.113281 C 402.359375 533.378906 402.332031 533.777344 402.070312 534.011719 C 401.949219 534.117188 401.800781 534.167969 401.652344 534.167969 " fill-opacity="1" fill-rule="nonzero"/><path fill="#ffffff" d="M 402.992188 535.960938 L 386.054688 542.042969 L 388.734375 551.257812 L 409.183594 545.679688 L 402.992188 535.960938 " fill-opacity="1" fill-rule="nonzero"/><path fill="#000000" d="M 386.828125 542.4375 L 389.167969 550.484375 L 408.1875 545.296875 L 402.730469 536.726562 Z M 388.734375 551.890625 C 388.460938 551.890625 388.207031 551.710938 388.125 551.433594 L 385.445312 542.21875 C 385.351562 541.898438 385.523438 541.558594 385.839844 541.445312 L 402.78125 535.367188 C 403.058594 535.265625 403.367188 535.371094 403.527344 535.621094 L 409.71875 545.339844 C 409.828125 545.511719 409.847656 545.71875 409.773438 545.910156 C 409.703125 546.097656 409.542969 546.238281 409.351562 546.292969 L 388.902344 551.867188 C 388.847656 551.882812 388.789062 551.890625 388.734375 551.890625 " fill-opacity="1" fill-rule="nonzero"/><path fill="#cf1616" d="M 389.460938 541.496094 C 388.714844 540.109375 386.855469 539.8125 385.726562 540.910156 L 380.828125 545.65625 L 385.0625 553.5 L 392.75 551.410156 C 392.773438 548.246094 390.890625 544.144531 389.460938 541.496094 " fill-opacity="1" fill-rule="nonzero"/><path fill="#ffffff" d="M 389.328125 547.394531 L 387.515625 544.824219 C 386.863281 543.902344 385.664062 543.542969 384.613281 543.964844 L 382.90625 544.644531 L 382.691406 543.867188 C 382.464844 543.027344 381.640625 542.492188 380.777344 542.628906 C 375.53125 543.460938 358.0625 546.394531 351.855469 549.566406 C 344.515625 553.3125 347.355469 564.859375 358.9375 565.664062 C 368.113281 566.300781 382.140625 558.289062 387.5625 554.9375 C 388.628906 554.277344 388.644531 552.734375 387.597656 552.050781 L 387.585938 552.042969 L 389.082031 550.511719 C 389.902344 549.667969 390.007812 548.359375 389.328125 547.394531 " fill-opacity="1" fill-rule="nonzero"/><path fill="#000000" d="M 381.046875 543.242188 C 380.992188 543.242188 380.933594 543.246094 380.878906 543.253906 C 375.683594 544.074219 358.261719 547.003906 352.144531 550.128906 C 349.328125 551.566406 347.96875 554.367188 348.597656 557.4375 C 349.253906 560.65625 352.367188 564.574219 358.980469 565.03125 C 367.941406 565.652344 381.722656 557.804688 387.230469 554.398438 C 387.550781 554.203125 387.738281 553.875 387.742188 553.5 C 387.746094 553.121094 387.566406 552.789062 387.25 552.582031 C 387.09375 552.476562 386.984375 552.304688 386.960938 552.117188 C 386.941406 551.929688 387 551.738281 387.132812 551.601562 L 388.628906 550.070312 C 389.234375 549.445312 389.316406 548.472656 388.8125 547.757812 L 387 545.191406 C 386.515625 544.503906 385.628906 544.238281 384.847656 544.550781 L 383.140625 545.234375 C 382.972656 545.300781 382.785156 545.292969 382.625 545.210938 C 382.464844 545.132812 382.34375 544.984375 382.296875 544.8125 L 382.082031 544.035156 C 381.953125 543.558594 381.523438 543.242188 381.046875 543.242188 Z M 359.992188 566.332031 C 359.617188 566.332031 359.25 566.320312 358.890625 566.296875 C 351.570312 565.785156 348.101562 561.34375 347.355469 557.691406 C 346.609375 554.039062 348.222656 550.707031 351.566406 549 C 357.855469 545.792969 375.441406 542.832031 380.679688 542.003906 C 381.859375 541.820312 382.988281 542.546875 383.304688 543.699219 L 383.332031 543.792969 L 384.378906 543.375 C 385.707031 542.847656 387.210938 543.292969 388.035156 544.460938 L 389.84375 547.03125 C 390.699219 548.242188 390.570312 549.890625 389.535156 550.953125 L 388.492188 552.019531 C 388.828125 552.441406 389.011719 552.964844 389.007812 553.515625 C 388.996094 554.320312 388.582031 555.054688 387.894531 555.476562 C 382.5 558.808594 369.289062 566.332031 359.992188 566.332031 " fill-opacity="1" fill-rule="nonzero"/><path fill="#000000" d="M 373.1875 557.429688 C 372.914062 557.429688 372.660156 557.25 372.578125 556.972656 L 370.183594 548.59375 C 370.085938 548.257812 370.28125 547.90625 370.621094 547.808594 C 370.953125 547.714844 371.304688 547.910156 371.402344 548.246094 L 373.796875 556.625 C 373.894531 556.957031 373.699219 557.3125 373.363281 557.40625 C 373.304688 557.421875 373.246094 557.429688 373.1875 557.429688 " fill-opacity="1" fill-rule="nonzero"/><path fill="#000000" d="M 359.597656 563.882812 C 359.480469 563.882812 359.363281 563.855469 359.257812 563.789062 C 349.886719 557.921875 353.617188 550.304688 353.65625 550.226562 C 353.8125 549.914062 354.195312 549.789062 354.507812 549.949219 C 354.816406 550.109375 354.941406 550.488281 354.785156 550.800781 C 354.648438 551.070312 351.566406 557.476562 359.933594 562.714844 C 360.226562 562.902344 360.320312 563.289062 360.132812 563.585938 C 360.011719 563.777344 359.804688 563.882812 359.597656 563.882812 " fill-opacity="1" fill-rule="nonzero"/><path fill="#ffffff" d="M 366.242188 532.78125 C 366.199219 532.78125 366.15625 532.777344 366.117188 532.765625 C 365.769531 532.699219 365.550781 532.363281 365.621094 532.019531 L 366.128906 529.507812 C 364.398438 528.125 355.28125 520.910156 340.835938 510.285156 C 324.808594 498.5 321.300781 496.085938 321.265625 496.0625 C 320.976562 495.867188 320.902344 495.472656 321.101562 495.183594 C 321.296875 494.894531 321.691406 494.824219 321.980469 495.019531 C 322.015625 495.042969 325.527344 497.453125 341.585938 509.265625 C 357.648438 521.078125 367.128906 528.683594 367.226562 528.761719 C 367.410156 528.90625 367.496094 529.148438 367.449219 529.378906 L 366.859375 532.273438 C 366.800781 532.574219 366.535156 532.78125 366.242188 532.78125 " fill-opacity="1" fill-rule="nonzero"/><path fill="#cf1616" d="M 442.613281 476.179688 C 441.402344 470.761719 433.679688 450.792969 427.851562 436.082031 C 423.203125 424.339844 411.964844 415.875 398.589844 414.171875 C 388.628906 412.90625 377.832031 412.652344 367.453125 413.46875 C 350.140625 414.832031 335.273438 425.425781 329.550781 440.617188 C 324.394531 454.296875 318.773438 471.09375 318.644531 479.601562 C 318.507812 488.664062 323.984375 497.324219 329.960938 504.050781 C 337.5 512.535156 348.253906 517.824219 359.871094 518.898438 C 376.464844 520.4375 402.355469 521.976562 414.113281 518.132812 C 432.152344 512.242188 445.539062 489.289062 442.613281 476.179688 " fill-opacity="1" fill-rule="nonzero"/><path fill="#000000" d="M 379.574219 413.628906 C 375.53125 413.628906 371.484375 413.785156 367.503906 414.097656 C 350.421875 415.445312 335.757812 425.941406 330.140625 440.839844 C 325.257812 453.800781 319.40625 471.046875 319.277344 479.609375 C 319.167969 487.089844 322.921875 495.171875 330.433594 503.628906 C 337.871094 511.996094 348.34375 517.199219 359.929688 518.269531 C 374.980469 519.664062 402.011719 521.421875 413.917969 517.535156 C 422.09375 514.863281 430.03125 508.296875 435.695312 499.519531 C 440.957031 491.367188 443.371094 482.472656 441.996094 476.316406 C 440.8125 471.011719 433.332031 451.632812 427.265625 436.316406 C 422.675781 424.71875 411.65625 416.472656 398.507812 414.800781 C 392.386719 414.019531 385.984375 413.628906 379.574219 413.628906 Z M 390.902344 521.191406 C 380.699219 521.191406 369.449219 520.421875 359.8125 519.53125 C 347.90625 518.425781 337.136719 513.078125 329.488281 504.46875 C 321.757812 495.769531 317.894531 487.398438 318.011719 479.589844 C 318.144531 470.84375 324.035156 453.449219 328.957031 440.390625 C 334.746094 425.035156 349.835938 414.222656 367.402344 412.835938 C 377.789062 412.019531 388.601562 412.265625 398.667969 413.542969 C 412.273438 415.277344 423.679688 423.824219 428.441406 435.851562 C 434.523438 451.210938 442.027344 470.652344 443.230469 476.042969 C 444.699219 482.617188 442.28125 491.648438 436.757812 500.207031 C 430.9375 509.222656 422.757812 515.976562 414.3125 518.738281 C 408.792969 520.539062 400.292969 521.191406 390.902344 521.191406 " fill-opacity="1" fill-rule="nonzero"/><path fill="#ffffff" d="M 433.378906 451.054688 L 354.976562 451.054688 C 351.417969 451.054688 348.535156 453.9375 348.535156 457.496094 L 348.535156 509.332031 C 348.535156 512.890625 351.417969 515.777344 354.976562 515.777344 L 433.378906 515.777344 C 436.9375 515.777344 439.820312 512.890625 439.820312 509.332031 L 439.820312 457.496094 C 439.820312 453.9375 436.9375 451.054688 433.378906 451.054688 " fill-opacity="1" fill-rule="nonzero"/><path fill="#000000" d="M 354.976562 451.6875 C 351.773438 451.6875 349.167969 454.292969 349.167969 457.496094 L 349.167969 509.332031 C 349.167969 512.535156 351.773438 515.144531 354.976562 515.144531 L 433.378906 515.144531 C 436.582031 515.144531 439.1875 512.535156 439.1875 509.332031 L 439.1875 457.496094 C 439.1875 454.292969 436.582031 451.6875 433.378906 451.6875 Z M 433.378906 516.40625 L 354.976562 516.40625 C 351.078125 516.40625 347.902344 513.234375 347.902344 509.332031 L 347.902344 457.496094 C 347.902344 453.597656 351.078125 450.421875 354.976562 450.421875 L 433.378906 450.421875 C 437.277344 450.421875 440.453125 453.597656 440.453125 457.496094 L 440.453125 509.332031 C 440.453125 513.234375 437.277344 516.40625 433.378906 516.40625 " fill-opacity="1" fill-rule="nonzero"/><path fill="#eba6a6" d="M 438.570312 516.089844 L 348.445312 516.089844 C 346.207031 516.089844 344.390625 517.902344 344.390625 520.144531 C 344.390625 522.382812 346.207031 524.199219 348.445312 524.199219 L 438.570312 524.199219 C 440.8125 524.199219 442.628906 522.382812 442.628906 520.144531 C 442.628906 517.902344 440.8125 516.089844 438.570312 516.089844 " fill-opacity="1" fill-rule="nonzero"/><path fill="#000000" d="M 348.445312 516.722656 C 346.558594 516.722656 345.023438 518.253906 345.023438 520.144531 C 345.023438 522.03125 346.558594 523.566406 348.445312 523.566406 L 438.570312 523.566406 C 440.457031 523.566406 441.996094 522.03125 441.996094 520.144531 C 441.996094 518.253906 440.457031 516.722656 438.570312 516.722656 Z M 438.570312 524.828125 L 348.445312 524.828125 C 345.863281 524.828125 343.757812 522.726562 343.757812 520.144531 C 343.757812 517.558594 345.863281 515.453125 348.445312 515.453125 L 438.570312 515.453125 C 441.15625 515.453125 443.261719 517.558594 443.261719 520.144531 C 443.261719 522.726562 441.15625 524.828125 438.570312 524.828125 " fill-opacity="1" fill-rule="nonzero"/><path fill="#b65959" d="M 397.578125 480.648438 C 397.578125 483.242188 395.476562 485.34375 392.882812 485.34375 C 390.289062 485.34375 388.1875 483.242188 388.1875 480.648438 C 388.1875 478.054688 390.289062 475.953125 392.882812 475.953125 C 395.476562 475.953125 397.578125 478.054688 397.578125 480.648438 " fill-opacity="1" fill-rule="nonzero"/><path fill="#ffffff" d="M 376.769531 413.527344 L 382.273438 394.183594 L 396.257812 405.972656 L 393.304688 417.414062 C 392.464844 420.472656 389.445312 421.578125 389.445312 421.578125 C 387.84375 422.261719 386.125 422.390625 384.46875 422.085938 C 382.195312 421.660156 380.03125 420.410156 378.429688 418.628906 L 377.789062 417.917969 C 376.714844 416.726562 376.332031 415.070312 376.769531 413.527344 " fill-opacity="1" fill-rule="nonzero"/><path fill="#000000" d="M 377.375 413.699219 C 376.996094 415.039062 377.324219 416.460938 378.257812 417.496094 L 378.898438 418.207031 C 380.429688 419.90625 382.449219 421.066406 384.585938 421.460938 C 386.1875 421.757812 387.785156 421.601562 389.195312 420.996094 C 389.253906 420.972656 391.957031 419.941406 392.695312 417.246094 L 395.546875 406.199219 L 382.613281 395.300781 Z M 386.15625 422.875 C 385.558594 422.875 384.957031 422.820312 384.351562 422.707031 C 381.949219 422.257812 379.675781 420.960938 377.957031 419.054688 L 377.316406 418.339844 C 376.089844 416.980469 375.660156 415.117188 376.160156 413.351562 L 381.664062 394.011719 C 381.722656 393.804688 381.878906 393.644531 382.085938 393.578125 C 382.292969 393.515625 382.515625 393.5625 382.679688 393.699219 L 396.664062 405.484375 C 396.851562 405.644531 396.933594 405.894531 396.871094 406.128906 L 393.917969 417.574219 C 393 420.914062 389.796875 422.121094 389.664062 422.171875 C 388.578125 422.636719 387.382812 422.875 386.15625 422.875 " fill-opacity="1" fill-rule="nonzero"/><path fill="#ffffff" d="M 393.550781 373.5625 C 387.027344 372.132812 374.660156 376.496094 377.265625 387.574219 C 378.097656 391.105469 379.917969 399.441406 381.828125 400.691406 C 383.765625 401.953125 385.988281 399.496094 388.203125 400.714844 C 391.074219 402.292969 389.226562 407.441406 391.703125 410.335938 C 393.261719 412.160156 397.496094 413.832031 405.324219 412.078125 C 406.59375 411.792969 407.480469 410.644531 407.429688 409.347656 C 407.363281 407.679688 407.269531 405.578125 407.015625 403.578125 C 405.785156 394.039062 403.113281 391.320312 404.78125 389.316406 C 407.339844 386.242188 409.96875 377.152344 393.550781 373.5625 " fill-opacity="1" fill-rule="nonzero"/><path fill="#000000" d="M 386.8125 399.730469 C 387.367188 399.730469 387.933594 399.84375 388.507812 400.160156 C 390.3125 401.152344 390.542969 403.246094 390.765625 405.273438 C 390.949219 406.960938 391.140625 408.707031 392.183594 409.925781 C 393.726562 411.730469 397.953125 413.082031 405.1875 411.460938 C 406.15625 411.246094 406.835938 410.363281 406.796875 409.371094 C 406.726562 407.621094 406.632812 405.59375 406.386719 403.660156 C 405.835938 399.375 404.996094 396.503906 404.378906 394.40625 C 403.625 391.824219 403.171875 390.261719 404.296875 388.910156 C 405.300781 387.707031 406.722656 384.867188 405.691406 381.859375 C 404.480469 378.328125 400.234375 375.671875 393.414062 374.179688 C 389.640625 373.351562 383.6875 374.589844 380.25 378.082031 C 377.839844 380.53125 377.019531 383.765625 377.882812 387.429688 L 378.070312 388.234375 C 378.828125 391.496094 380.605469 399.140625 382.175781 400.160156 C 382.859375 400.609375 383.589844 400.4375 384.722656 400.113281 C 385.375 399.929688 386.082031 399.730469 386.8125 399.730469 Z M 399.238281 413.460938 C 394.050781 413.460938 391.871094 411.503906 391.222656 410.746094 C 389.925781 409.230469 389.703125 407.203125 389.503906 405.410156 C 389.300781 403.550781 389.128906 401.945312 387.902344 401.269531 C 387.011719 400.78125 386.066406 401.050781 385.066406 401.332031 C 383.953125 401.648438 382.6875 402.007812 381.484375 401.222656 C 379.644531 400.019531 378.121094 394.035156 376.835938 388.519531 L 376.648438 387.71875 C 375.683594 383.609375 376.613281 379.96875 379.347656 377.191406 C 383.234375 373.246094 389.632812 372.058594 393.683594 372.945312 C 402.875 374.953125 405.9375 378.679688 406.890625 381.449219 C 408.023438 384.757812 406.726562 387.972656 405.269531 389.71875 C 404.609375 390.515625 404.835938 391.453125 405.59375 394.050781 C 406.222656 396.1875 407.078125 399.113281 407.640625 403.496094 C 407.898438 405.480469 407.992188 407.542969 408.0625 409.320312 C 408.125 410.925781 407.03125 412.34375 405.464844 412.695312 C 403.019531 413.242188 400.960938 413.460938 399.238281 413.460938 " fill-opacity="1" fill-rule="nonzero"/><path fill="#ffffff" d="M 392.890625 389.023438 C 393.214844 390.222656 393.453125 391.4375 393.609375 392.667969 C 393.898438 394.972656 394.425781 398.921875 394.890625 401.113281 C 395.464844 403.828125 403.183594 403.207031 405.59375 402.945312 C 405.980469 402.902344 406.253906 402.542969 406.183594 402.15625 L 405.90625 399.859375 L 407.769531 399.828125 C 407.996094 399.792969 408.222656 399.710938 408.402344 399.5625 C 408.851562 399.199219 408.992188 398.613281 408.800781 398.105469 C 407.792969 395.492188 405.9375 391.140625 405.664062 386.234375 C 405.636719 385.734375 405.957031 383 404.558594 382.25 C 402.429688 381.109375 397.507812 380.933594 394.175781 382.980469 C 392.746094 383.859375 392.453125 387.402344 392.890625 389.023438 " fill-opacity="1" fill-rule="nonzero"/><path fill="#000000" d="M 393.5 388.859375 C 393.828125 390.074219 394.078125 391.332031 394.234375 392.589844 C 394.511719 394.78125 395.042969 398.792969 395.507812 400.980469 C 395.808594 402.398438 399.835938 402.933594 405.527344 402.316406 L 405.523438 402.300781 L 405.558594 402.234375 L 405.195312 399.242188 L 407.710938 399.195312 C 407.828125 399.171875 407.929688 399.128906 408.003906 399.070312 C 408.226562 398.890625 408.308594 398.597656 408.207031 398.335938 L 407.925781 397.605469 C 406.875 394.910156 405.285156 390.84375 405.03125 386.269531 C 405.027344 386.1875 405.027344 386.042969 405.035156 385.863281 C 405.054688 385.152344 405.109375 383.261719 404.261719 382.808594 C 402.34375 381.78125 397.707031 381.554688 394.503906 383.519531 C 393.445312 384.171875 393.101562 387.371094 393.5 388.859375 Z M 401.242188 403.835938 C 397.953125 403.835938 394.707031 403.296875 394.269531 401.242188 C 393.796875 399.007812 393.257812 394.960938 392.980469 392.746094 C 392.828125 391.546875 392.59375 390.351562 392.277344 389.1875 C 391.804688 387.4375 392.042969 383.546875 393.84375 382.441406 C 397.253906 380.347656 402.386719 380.367188 404.859375 381.691406 C 406.398438 382.515625 406.328125 384.886719 406.300781 385.902344 C 406.296875 386.035156 406.292969 386.136719 406.296875 386.199219 C 406.539062 390.570312 408.082031 394.527344 409.101562 397.144531 L 409.390625 397.882812 C 409.6875 398.65625 409.453125 399.53125 408.796875 400.058594 C 408.546875 400.261719 408.222656 400.398438 407.867188 400.453125 L 407.78125 400.460938 L 406.617188 400.480469 L 406.8125 402.078125 C 406.871094 402.402344 406.785156 402.773438 406.566406 403.058594 C 406.351562 403.347656 406.019531 403.535156 405.664062 403.574219 C 404.378906 403.714844 402.804688 403.835938 401.242188 403.835938 " fill-opacity="1" fill-rule="nonzero"/><path fill="#000000" d="M 407.980469 395.140625 L 345.773438 394.429688 L 352.792969 389.414062 L 346.078125 384.363281 L 405.34375 385.410156 L 407.980469 395.140625 " fill-opacity="1" fill-rule="nonzero"/><path fill="#ffffff" d="M 402.28125 391.597656 L 399.683594 391.597656 C 398.980469 391.597656 398.417969 391.03125 398.417969 390.332031 C 398.417969 389.632812 398.980469 389.0625 399.683594 389.0625 L 402.28125 389.0625 C 402.980469 389.0625 403.546875 389.632812 403.546875 390.332031 C 403.546875 391.03125 402.980469 391.597656 402.28125 391.597656 " fill-opacity="1" fill-rule="nonzero"/><path fill="#000000" d="M 404.445312 386.257812 C 406.824219 386.113281 407.609375 383.148438 406.933594 380.863281 C 404.609375 373.035156 398.027344 367.832031 390.597656 368.28125 C 381.820312 368.8125 375.171875 377.027344 375.621094 387.296875 L 404.445312 386.257812 " fill-opacity="1" fill-rule="nonzero"/><path fill="#000000" d="M 340.226562 566.332031 C 340.179688 566.332031 340.132812 566.328125 340.085938 566.316406 C 306.570312 558.652344 283.917969 539.230469 270.8125 524.292969 C 256.621094 508.105469 250.253906 493.515625 250.191406 493.371094 C 250.054688 493.050781 250.199219 492.675781 250.523438 492.539062 C 250.84375 492.402344 251.214844 492.546875 251.355469 492.871094 C 251.414062 493.011719 257.71875 507.449219 271.796875 523.492188 C 284.773438 538.277344 307.203125 557.5 340.367188 565.082031 C 340.707031 565.160156 340.921875 565.5 340.84375 565.839844 C 340.777344 566.136719 340.515625 566.332031 340.226562 566.332031 " fill-opacity="1" fill-rule="nonzero"/><path fill="#000000" d="M 345.859375 575.652344 C 345.835938 575.652344 345.816406 575.652344 345.792969 575.648438 C 325.253906 573.476562 307.398438 564.089844 296.035156 556.59375 C 283.730469 548.480469 276.167969 540.769531 276.09375 540.691406 C 275.847656 540.441406 275.855469 540.039062 276.105469 539.796875 C 276.355469 539.550781 276.757812 539.558594 277 539.808594 C 277.074219 539.882812 284.5625 547.515625 296.757812 555.554688 C 307.996094 562.964844 325.652344 572.246094 345.925781 574.390625 C 346.273438 574.425781 346.523438 574.738281 346.488281 575.085938 C 346.453125 575.410156 346.179688 575.652344 345.859375 575.652344 " fill-opacity="1" fill-rule="nonzero"/><path fill="#000000" d="M 501.464844 272.09375 C 501.324219 272.09375 501.183594 272.042969 501.066406 271.949219 C 463.863281 241.714844 434.453125 237.046875 434.160156 237.003906 C 433.8125 236.953125 433.574219 236.632812 433.625 236.285156 C 433.679688 235.941406 434.003906 235.699219 434.347656 235.753906 C 434.640625 235.796875 464.363281 240.492188 501.863281 270.96875 C 502.136719 271.1875 502.175781 271.585938 501.957031 271.859375 C 501.832031 272.011719 501.648438 272.09375 501.464844 272.09375 " fill-opacity="1" fill-rule="nonzero"/><path fill="#000000" d="M 514.492188 269.808594 C 514.324219 269.808594 514.15625 269.742188 514.03125 269.609375 C 503.675781 258.53125 482.757812 247.285156 482.550781 247.171875 C 482.238281 247.007812 482.125 246.625 482.289062 246.316406 C 482.453125 246.007812 482.835938 245.890625 483.144531 246.054688 C 483.355469 246.167969 504.457031 257.515625 514.953125 268.746094 C 515.195312 269 515.179688 269.398438 514.925781 269.636719 C 514.804688 269.753906 514.648438 269.808594 514.492188 269.808594 " fill-opacity="1" fill-rule="nonzero"/><path fill="#000000" d="M 559.957031 351.289062 C 559.738281 351.289062 559.527344 351.175781 559.410156 350.96875 C 559.234375 350.667969 559.34375 350.28125 559.644531 350.105469 L 561.3125 349.144531 C 561.613281 348.972656 562.003906 349.074219 562.175781 349.375 C 562.351562 349.679688 562.246094 350.066406 561.941406 350.242188 L 560.273438 351.203125 C 560.175781 351.261719 560.066406 351.289062 559.957031 351.289062 " fill-opacity="1" fill-rule="nonzero"/><path fill="#000000" d="M 567.953125 346.679688 C 567.734375 346.679688 567.519531 346.566406 567.40625 346.363281 C 567.230469 346.058594 567.335938 345.675781 567.636719 345.5 L 569.308594 344.535156 C 569.609375 344.363281 569.996094 344.464844 570.171875 344.769531 C 570.34375 345.074219 570.242188 345.457031 569.9375 345.632812 L 568.269531 346.597656 C 568.167969 346.652344 568.0625 346.679688 567.953125 346.679688 " fill-opacity="1" fill-rule="nonzero"/><path fill="#000000" d="M 562.949219 345.335938 C 562.726562 345.335938 562.515625 345.222656 562.402344 345.023438 L 561.425781 343.351562 C 561.25 343.050781 561.351562 342.664062 561.652344 342.484375 C 561.957031 342.3125 562.339844 342.414062 562.519531 342.714844 L 563.496094 344.386719 C 563.667969 344.6875 563.566406 345.074219 563.265625 345.25 C 563.164062 345.3125 563.054688 345.335938 562.949219 345.335938 " fill-opacity="1" fill-rule="nonzero"/><path fill="#000000" d="M 567.609375 353.34375 C 567.390625 353.34375 567.179688 353.230469 567.0625 353.027344 L 566.085938 351.355469 C 565.910156 351.054688 566.011719 350.667969 566.316406 350.488281 C 566.617188 350.316406 567.003906 350.417969 567.179688 350.71875 L 568.152344 352.390625 C 568.332031 352.691406 568.226562 353.078125 567.925781 353.253906 C 567.824219 353.3125 567.714844 353.34375 567.609375 353.34375 " fill-opacity="1" fill-rule="nonzero"/><path fill="#000000" d="M 547.320312 467 C 547.101562 467 546.890625 466.890625 546.773438 466.6875 C 546.597656 466.382812 546.703125 465.996094 547.003906 465.820312 L 548.671875 464.859375 C 548.976562 464.683594 549.363281 464.785156 549.539062 465.089844 C 549.710938 465.394531 549.609375 465.78125 549.308594 465.957031 L 547.640625 466.917969 C 547.539062 466.976562 547.429688 467 547.320312 467 " fill-opacity="1" fill-rule="nonzero"/><path fill="#000000" d="M 555.316406 462.394531 C 555.097656 462.394531 554.886719 462.277344 554.769531 462.074219 C 554.59375 461.773438 554.699219 461.386719 555.003906 461.210938 L 556.671875 460.25 C 556.972656 460.074219 557.359375 460.179688 557.535156 460.480469 C 557.710938 460.785156 557.605469 461.171875 557.300781 461.347656 L 555.632812 462.308594 C 555.535156 462.367188 555.425781 462.394531 555.316406 462.394531 " fill-opacity="1" fill-rule="nonzero"/><path fill="#000000" d="M 550.308594 461.050781 C 550.09375 461.050781 549.882812 460.9375 549.761719 460.734375 L 548.789062 459.066406 C 548.613281 458.761719 548.714844 458.375 549.015625 458.199219 C 549.316406 458.023438 549.707031 458.128906 549.882812 458.429688 L 550.855469 460.097656 C 551.03125 460.402344 550.929688 460.789062 550.628906 460.964844 C 550.527344 461.023438 550.417969 461.050781 550.308594 461.050781 " fill-opacity="1" fill-rule="nonzero"/><path fill="#000000" d="M 554.976562 469.054688 C 554.753906 469.054688 554.542969 468.941406 554.425781 468.738281 L 553.453125 467.066406 C 553.277344 466.765625 553.378906 466.378906 553.679688 466.203125 C 553.984375 466.023438 554.371094 466.128906 554.546875 466.429688 L 555.519531 468.101562 C 555.695312 468.402344 555.59375 468.789062 555.292969 468.96875 C 555.191406 469.023438 555.082031 469.054688 554.976562 469.054688 " fill-opacity="1" fill-rule="nonzero"/></svg>