<svg xmlns="http://www.w3.org/2000/svg" xmlns:xlink="http://www.w3.org/1999/xlink" width="150" zoomAndPan="magnify" viewBox="0 0 112.5 30.000001" height="40" preserveAspectRatio="xMidYMid meet" version="1.0"><defs><g/><clipPath id="78e47e9d50"><path d="M 79 14 L 82 14 L 82 18.953125 L 79 18.953125 Z M 79 14 " clip-rule="nonzero"/></clipPath><clipPath id="5031ac3008"><path d="M 80.691406 16.417969 L 82.261719 16.417969 L 82.261719 18.902344 L 80.691406 18.902344 Z M 80.691406 16.417969 " clip-rule="nonzero"/></clipPath><clipPath id="46cf722302"><path d="M 81 13 L 83 13 L 83 18.953125 L 81 18.953125 Z M 81 13 " clip-rule="nonzero"/></clipPath><clipPath id="b4b22bd2ce"><path d="M 83 13 L 84.546875 13 L 84.546875 17 L 83 17 Z M 83 13 " clip-rule="nonzero"/></clipPath><clipPath id="3267561119"><path d="M 77.820312 11 L 80 11 L 80 15 L 77.820312 15 Z M 77.820312 11 " clip-rule="nonzero"/></clipPath><clipPath id="9a8de9cc52"><path d="M 79 10.117188 L 83 10.117188 L 83 12 L 79 12 Z M 79 10.117188 " clip-rule="nonzero"/></clipPath><clipPath id="970b46673f"><path d="M 82.734375 11.457031 L 84.492188 11.457031 L 84.492188 13.949219 L 82.734375 13.949219 Z M 82.734375 11.457031 " clip-rule="nonzero"/></clipPath><clipPath id="fd1154d7b4"><path d="M 78 10.117188 L 82 10.117188 L 82 12 L 78 12 Z M 78 10.117188 " clip-rule="nonzero"/></clipPath><clipPath id="d332d96f6c"><path d="M 81 10.117188 L 84 10.117188 L 84 12 L 81 12 Z M 81 10.117188 " clip-rule="nonzero"/></clipPath></defs><g fill="#000000" fill-opacity="1"><g transform="translate(34.59198, 16.714076)"><g><path d="M 0.515625 -5.171875 L 2.765625 -5.171875 C 3.429688 -5.171875 3.945312 -5.015625 4.3125 -4.703125 C 4.675781 -4.390625 4.859375 -3.945312 4.859375 -3.375 C 4.859375 -2.769531 4.675781 -2.296875 4.3125 -1.953125 C 3.945312 -1.617188 3.429688 -1.453125 2.765625 -1.453125 L 1.828125 -1.453125 L 1.828125 0 L 0.515625 0 Z M 1.828125 -4.140625 L 1.828125 -2.484375 L 2.703125 -2.484375 C 2.992188 -2.484375 3.21875 -2.554688 3.375 -2.703125 C 3.53125 -2.847656 3.609375 -3.054688 3.609375 -3.328125 C 3.609375 -3.585938 3.53125 -3.785156 3.375 -3.921875 C 3.21875 -4.066406 2.992188 -4.140625 2.703125 -4.140625 Z M 1.828125 -4.140625 "/></g></g></g><g fill="#000000" fill-opacity="1"><g transform="translate(40.130839, 16.714076)"><g><path d="M 3.953125 -0.953125 L 1.6875 -0.953125 L 1.3125 0 L -0.03125 0 L 2.1875 -5.171875 L 3.546875 -5.171875 L 5.734375 0 L 4.328125 0 Z M 3.5625 -1.953125 L 2.828125 -3.859375 L 2.078125 -1.953125 Z M 3.5625 -1.953125 "/></g></g></g><g fill="#000000" fill-opacity="1"><g transform="translate(46.334358, 16.714076)"><g><path d="M 2.5 -5.234375 C 3.28125 -5.234375 3.960938 -5.039062 4.546875 -4.65625 L 4.046875 -3.625 C 3.773438 -3.78125 3.484375 -3.910156 3.171875 -4.015625 C 2.867188 -4.117188 2.609375 -4.171875 2.390625 -4.171875 C 2.015625 -4.171875 1.828125 -4.046875 1.828125 -3.796875 C 1.828125 -3.628906 1.921875 -3.492188 2.109375 -3.390625 C 2.296875 -3.296875 2.519531 -3.210938 2.78125 -3.140625 C 3.050781 -3.066406 3.320312 -2.976562 3.59375 -2.875 C 3.863281 -2.78125 4.09375 -2.617188 4.28125 -2.390625 C 4.46875 -2.160156 4.5625 -1.875 4.5625 -1.53125 C 4.5625 -1.039062 4.363281 -0.65625 3.96875 -0.375 C 3.582031 -0.09375 3.085938 0.046875 2.484375 0.046875 C 2.054688 0.046875 1.632812 -0.0234375 1.21875 -0.171875 C 0.800781 -0.328125 0.4375 -0.53125 0.125 -0.78125 L 0.640625 -1.796875 C 0.898438 -1.566406 1.207031 -1.378906 1.5625 -1.234375 C 1.914062 -1.085938 2.226562 -1.015625 2.5 -1.015625 C 2.71875 -1.015625 2.882812 -1.050781 3 -1.125 C 3.113281 -1.207031 3.171875 -1.320312 3.171875 -1.46875 C 3.171875 -1.613281 3.101562 -1.734375 2.96875 -1.828125 C 2.832031 -1.921875 2.664062 -1.988281 2.46875 -2.03125 C 2.269531 -2.082031 2.050781 -2.144531 1.8125 -2.21875 C 1.570312 -2.300781 1.347656 -2.390625 1.140625 -2.484375 C 0.941406 -2.578125 0.773438 -2.726562 0.640625 -2.9375 C 0.503906 -3.144531 0.4375 -3.390625 0.4375 -3.671875 C 0.4375 -4.140625 0.625 -4.515625 1 -4.796875 C 1.382812 -5.085938 1.882812 -5.234375 2.5 -5.234375 Z M 2.5 -5.234375 "/></g></g></g><g fill="#000000" fill-opacity="1"><g transform="translate(51.60735, 16.714076)"><g><path d="M 2.5 -5.234375 C 3.28125 -5.234375 3.960938 -5.039062 4.546875 -4.65625 L 4.046875 -3.625 C 3.773438 -3.78125 3.484375 -3.910156 3.171875 -4.015625 C 2.867188 -4.117188 2.609375 -4.171875 2.390625 -4.171875 C 2.015625 -4.171875 1.828125 -4.046875 1.828125 -3.796875 C 1.828125 -3.628906 1.921875 -3.492188 2.109375 -3.390625 C 2.296875 -3.296875 2.519531 -3.210938 2.78125 -3.140625 C 3.050781 -3.066406 3.320312 -2.976562 3.59375 -2.875 C 3.863281 -2.78125 4.09375 -2.617188 4.28125 -2.390625 C 4.46875 -2.160156 4.5625 -1.875 4.5625 -1.53125 C 4.5625 -1.039062 4.363281 -0.65625 3.96875 -0.375 C 3.582031 -0.09375 3.085938 0.046875 2.484375 0.046875 C 2.054688 0.046875 1.632812 -0.0234375 1.21875 -0.171875 C 0.800781 -0.328125 0.4375 -0.53125 0.125 -0.78125 L 0.640625 -1.796875 C 0.898438 -1.566406 1.207031 -1.378906 1.5625 -1.234375 C 1.914062 -1.085938 2.226562 -1.015625 2.5 -1.015625 C 2.71875 -1.015625 2.882812 -1.050781 3 -1.125 C 3.113281 -1.207031 3.171875 -1.320312 3.171875 -1.46875 C 3.171875 -1.613281 3.101562 -1.734375 2.96875 -1.828125 C 2.832031 -1.921875 2.664062 -1.988281 2.46875 -2.03125 C 2.269531 -2.082031 2.050781 -2.144531 1.8125 -2.21875 C 1.570312 -2.300781 1.347656 -2.390625 1.140625 -2.484375 C 0.941406 -2.578125 0.773438 -2.726562 0.640625 -2.9375 C 0.503906 -3.144531 0.4375 -3.390625 0.4375 -3.671875 C 0.4375 -4.140625 0.625 -4.515625 1 -4.796875 C 1.382812 -5.085938 1.882812 -5.234375 2.5 -5.234375 Z M 2.5 -5.234375 "/></g></g></g><g fill="#cb0000" fill-opacity="1"><g transform="translate(56.881881, 16.714076)"><g><path d="M 3.953125 -2.625 L 5.09375 -2.625 L 5.09375 -0.609375 C 4.8125 -0.410156 4.472656 -0.25 4.078125 -0.125 C 3.679688 0 3.300781 0.0625 2.9375 0.0625 C 2.15625 0.0625 1.5 -0.1875 0.96875 -0.6875 C 0.4375 -1.195312 0.171875 -1.832031 0.171875 -2.59375 C 0.171875 -3.332031 0.441406 -3.953125 0.984375 -4.453125 C 1.523438 -4.960938 2.207031 -5.21875 3.03125 -5.21875 C 3.414062 -5.21875 3.796875 -5.144531 4.171875 -5 C 4.554688 -4.863281 4.878906 -4.679688 5.140625 -4.453125 L 4.40625 -3.5625 C 4.21875 -3.726562 4 -3.859375 3.75 -3.953125 C 3.507812 -4.054688 3.265625 -4.109375 3.015625 -4.109375 C 2.597656 -4.109375 2.242188 -3.960938 1.953125 -3.671875 C 1.660156 -3.378906 1.515625 -3.019531 1.515625 -2.59375 C 1.515625 -2.144531 1.660156 -1.773438 1.953125 -1.484375 C 2.242188 -1.191406 2.601562 -1.046875 3.03125 -1.046875 C 3.3125 -1.046875 3.617188 -1.128906 3.953125 -1.296875 Z M 3.953125 -2.625 "/></g></g></g><g fill="#cb0000" fill-opacity="1"><g transform="translate(62.885999, 16.714076)"><g><path d="M 4.5625 -4.140625 L 1.828125 -4.140625 L 1.828125 -3.109375 L 4.296875 -3.109375 L 4.296875 -2.078125 L 1.828125 -2.078125 L 1.828125 -1.03125 L 4.65625 -1.03125 L 4.65625 0 L 0.515625 0 L 0.515625 -5.171875 L 4.5625 -5.171875 Z M 4.5625 -4.140625 "/></g></g></g><g fill="#cb0000" fill-opacity="1"><g transform="translate(68.380544, 16.714076)"><g><path d="M 5.296875 0 L 4.125 0 L 1.75 -3.1875 L 1.75 0 L 0.515625 0 L 0.515625 -5.171875 L 1.671875 -5.171875 L 4.0625 -1.984375 L 4.0625 -5.171875 L 5.296875 -5.171875 Z M 5.296875 0 "/></g></g></g><g clip-path="url(#78e47e9d50)"><path fill="#cb0000" d="M 80.160156 18.785156 C 80.109375 18.785156 80.0625 18.761719 80.027344 18.71875 C 79.960938 18.644531 79.972656 18.53125 80.046875 18.46875 C 80.898438 17.757812 81.410156 16.796875 81.449219 15.832031 C 81.464844 15.46875 81.375 15.171875 81.304688 15.027344 C 81.273438 15.144531 81.238281 15.378906 81.257812 15.84375 C 81.285156 16.621094 80.789062 17.460938 79.75 18.414062 C 79.675781 18.480469 79.566406 18.472656 79.5 18.402344 C 79.433594 18.328125 79.4375 18.21875 79.511719 18.152344 C 80.46875 17.273438 80.925781 16.523438 80.902344 15.855469 C 80.867188 14.921875 81.015625 14.714844 81.148438 14.636719 C 81.234375 14.585938 81.335938 14.585938 81.425781 14.640625 C 81.6875 14.796875 81.824219 15.375 81.804688 15.84375 C 81.761719 16.910156 81.203125 17.964844 80.277344 18.742188 C 80.242188 18.769531 80.203125 18.785156 80.160156 18.785156 " fill-opacity="1" fill-rule="nonzero"/></g><path fill="#cb0000" d="M 79.1875 17.980469 C 79.144531 17.980469 79.101562 17.964844 79.066406 17.933594 C 78.992188 17.871094 78.988281 17.757812 79.054688 17.683594 L 79.195312 17.53125 C 79.859375 16.804688 80.195312 16.441406 80.28125 15.742188 C 80.292969 15.644531 80.382812 15.574219 80.476562 15.589844 C 80.574219 15.601562 80.644531 15.6875 80.632812 15.785156 C 80.535156 16.597656 80.128906 17.039062 79.457031 17.773438 L 79.316406 17.925781 C 79.28125 17.960938 79.234375 17.980469 79.1875 17.980469 " fill-opacity="1" fill-rule="nonzero"/><path fill="#cb0000" d="M 82.175781 16.15625 C 82.171875 16.15625 82.167969 16.15625 82.164062 16.15625 C 82.066406 16.148438 81.992188 16.0625 81.996094 15.964844 C 82 15.90625 82.003906 15.847656 82.003906 15.792969 C 81.996094 15.074219 81.808594 14.761719 81.65625 14.511719 C 81.507812 14.261719 81.3125 14.136719 81.144531 14.179688 C 80.960938 14.226562 80.738281 14.511719 80.710938 15.15625 C 80.707031 15.257812 80.625 15.332031 80.527344 15.328125 C 80.429688 15.324219 80.351562 15.242188 80.355469 15.144531 C 80.386719 14.429688 80.648438 13.9375 81.058594 13.835938 C 81.382812 13.75 81.726562 13.941406 81.960938 14.328125 C 82.125 14.601562 82.347656 14.972656 82.359375 15.789062 C 82.359375 15.855469 82.355469 15.921875 82.351562 15.988281 C 82.347656 16.082031 82.269531 16.15625 82.175781 16.15625 " fill-opacity="1" fill-rule="nonzero"/><g clip-path="url(#5031ac3008)"><path fill="#cb0000" d="M 80.871094 18.902344 C 80.824219 18.902344 80.777344 18.882812 80.742188 18.847656 C 80.675781 18.773438 80.675781 18.664062 80.75 18.59375 C 81.289062 18.082031 81.710938 17.339844 81.902344 16.558594 C 81.925781 16.464844 82.023438 16.40625 82.117188 16.429688 C 82.210938 16.453125 82.269531 16.546875 82.246094 16.644531 C 82.039062 17.488281 81.582031 18.292969 80.992188 18.851562 C 80.960938 18.886719 80.914062 18.902344 80.871094 18.902344 " fill-opacity="1" fill-rule="nonzero"/></g><path fill="#cb0000" d="M 78.785156 17.355469 C 78.738281 17.355469 78.6875 17.335938 78.652344 17.296875 C 78.585938 17.226562 78.589844 17.113281 78.664062 17.046875 C 79.605469 16.171875 79.707031 15.484375 79.824219 14.6875 C 79.851562 14.492188 79.882812 14.292969 79.925781 14.078125 C 80.007812 13.667969 80.226562 13.347656 80.546875 13.179688 C 80.851562 13.015625 81.222656 13.003906 81.570312 13.144531 C 81.660156 13.183594 81.703125 13.285156 81.667969 13.378906 C 81.628906 13.46875 81.523438 13.511719 81.433594 13.472656 C 81.183594 13.371094 80.929688 13.378906 80.714844 13.492188 C 80.488281 13.613281 80.332031 13.84375 80.273438 14.148438 C 80.230469 14.351562 80.203125 14.550781 80.175781 14.742188 C 80.054688 15.566406 79.941406 16.347656 78.90625 17.304688 C 78.871094 17.339844 78.828125 17.355469 78.785156 17.355469 " fill-opacity="1" fill-rule="nonzero"/><g clip-path="url(#46cf722302)"><path fill="#cb0000" d="M 81.671875 18.738281 C 81.625 18.738281 81.578125 18.71875 81.542969 18.683594 C 81.476562 18.613281 81.476562 18.5 81.546875 18.433594 C 82.167969 17.828125 82.511719 17.007812 82.5625 15.996094 C 82.613281 15.023438 82.371094 14.539062 82.070312 14.050781 C 81.984375 13.90625 81.960938 13.875 81.867188 13.789062 C 81.796875 13.722656 81.792969 13.609375 81.859375 13.539062 C 81.925781 13.464844 82.039062 13.464844 82.109375 13.53125 C 82.234375 13.644531 82.277344 13.707031 82.375 13.867188 C 82.691406 14.386719 82.972656 14.941406 82.917969 16.011719 C 82.859375 17.117188 82.480469 18.019531 81.796875 18.6875 C 81.761719 18.722656 81.714844 18.738281 81.671875 18.738281 " fill-opacity="1" fill-rule="nonzero"/></g><path fill="#cb0000" d="M 78.410156 16.484375 C 78.355469 16.484375 78.296875 16.457031 78.261719 16.40625 C 78.207031 16.324219 78.230469 16.214844 78.3125 16.160156 C 78.878906 15.777344 79.058594 15.167969 79.21875 14.46875 C 79.242188 14.371094 79.335938 14.3125 79.433594 14.335938 C 79.527344 14.355469 79.585938 14.453125 79.566406 14.546875 C 79.394531 15.292969 79.183594 16 78.511719 16.453125 C 78.480469 16.472656 78.445312 16.484375 78.410156 16.484375 " fill-opacity="1" fill-rule="nonzero"/><path fill="#cb0000" d="M 83.144531 14.699219 C 83.066406 14.699219 82.992188 14.644531 82.972656 14.566406 C 82.847656 14.046875 82.675781 13.707031 82.355469 13.34375 C 81.910156 12.839844 81.300781 12.582031 80.761719 12.667969 C 80.371094 12.730469 80.066406 12.964844 79.90625 13.332031 C 79.835938 13.492188 79.773438 13.679688 79.714844 13.914062 C 79.6875 14.007812 79.59375 14.066406 79.496094 14.042969 C 79.402344 14.015625 79.34375 13.917969 79.371094 13.824219 C 79.4375 13.570312 79.503906 13.371094 79.582031 13.1875 C 79.789062 12.714844 80.199219 12.398438 80.707031 12.316406 C 81.375 12.210938 82.089844 12.507812 82.621094 13.109375 C 82.976562 13.515625 83.179688 13.910156 83.316406 14.480469 C 83.339844 14.578125 83.28125 14.671875 83.1875 14.695312 C 83.171875 14.699219 83.160156 14.699219 83.144531 14.699219 " fill-opacity="1" fill-rule="nonzero"/><path fill="#cb0000" d="M 83.015625 17.753906 C 82.996094 17.753906 82.972656 17.753906 82.953125 17.746094 C 82.863281 17.710938 82.816406 17.605469 82.851562 17.515625 C 83.207031 16.578125 83.222656 16.101562 83.121094 15.394531 C 83.113281 15.316406 83.101562 15.238281 83.089844 15.167969 C 83.074219 15.070312 83.140625 14.980469 83.238281 14.964844 C 83.332031 14.949219 83.425781 15.015625 83.441406 15.113281 C 83.453125 15.1875 83.460938 15.261719 83.472656 15.34375 C 83.582031 16.101562 83.566406 16.636719 83.183594 17.640625 C 83.15625 17.710938 83.089844 17.753906 83.015625 17.753906 " fill-opacity="1" fill-rule="nonzero"/><path fill="#cb0000" d="M 78.332031 15.375 C 78.289062 15.375 78.246094 15.359375 78.210938 15.328125 C 78.140625 15.261719 78.136719 15.148438 78.203125 15.078125 C 78.507812 14.753906 78.5625 14.414062 78.632812 13.992188 C 78.6875 13.667969 78.746094 13.300781 78.925781 12.867188 C 79.128906 12.375 79.515625 11.988281 80.015625 11.773438 C 80.105469 11.734375 80.210938 11.777344 80.25 11.867188 C 80.289062 11.957031 80.246094 12.0625 80.15625 12.097656 C 79.742188 12.277344 79.421875 12.597656 79.253906 13.003906 C 79.089844 13.398438 79.035156 13.742188 78.984375 14.046875 C 78.910156 14.496094 78.839844 14.914062 78.464844 15.320312 C 78.429688 15.359375 78.382812 15.375 78.332031 15.375 " fill-opacity="1" fill-rule="nonzero"/><path fill="#cb0000" d="M 83.222656 13.125 C 83.167969 13.125 83.113281 13.097656 83.078125 13.050781 C 82.792969 12.636719 82.40625 12.335938 81.894531 12.132812 C 81.402344 11.9375 81.035156 11.878906 80.660156 11.941406 C 80.5625 11.957031 80.472656 11.894531 80.457031 11.796875 C 80.4375 11.699219 80.503906 11.609375 80.601562 11.59375 C 81.039062 11.519531 81.476562 11.582031 82.027344 11.804688 C 82.601562 12.035156 83.042969 12.375 83.371094 12.847656 C 83.425781 12.925781 83.40625 13.039062 83.324219 13.09375 C 83.292969 13.117188 83.257812 13.125 83.222656 13.125 " fill-opacity="1" fill-rule="nonzero"/><g clip-path="url(#b4b22bd2ce)"><path fill="#cb0000" d="M 83.890625 16.738281 C 83.882812 16.738281 83.871094 16.738281 83.863281 16.734375 C 83.765625 16.722656 83.699219 16.632812 83.714844 16.535156 C 83.898438 15.265625 83.753906 14.785156 83.535156 14.0625 L 83.507812 13.96875 C 83.460938 13.8125 83.40625 13.667969 83.347656 13.53125 C 83.304688 13.441406 83.347656 13.335938 83.4375 13.296875 C 83.527344 13.257812 83.632812 13.296875 83.671875 13.386719 C 83.738281 13.535156 83.796875 13.695312 83.847656 13.867188 L 83.875 13.960938 C 84.101562 14.699219 84.261719 15.238281 84.066406 16.585938 C 84.050781 16.675781 83.976562 16.738281 83.890625 16.738281 " fill-opacity="1" fill-rule="nonzero"/></g><g clip-path="url(#3267561119)"><path fill="#cb0000" d="M 78.019531 14.40625 C 78.003906 14.40625 77.988281 14.402344 77.96875 14.398438 C 77.875 14.375 77.820312 14.277344 77.847656 14.179688 C 77.878906 14.070312 77.90625 13.929688 77.9375 13.785156 C 78.058594 13.230469 78.222656 12.472656 78.707031 11.972656 C 78.777344 11.902344 78.886719 11.902344 78.957031 11.972656 C 79.027344 12.039062 79.03125 12.152344 78.960938 12.222656 C 78.546875 12.644531 78.402344 13.320312 78.285156 13.859375 C 78.253906 14.011719 78.222656 14.152344 78.1875 14.277344 C 78.167969 14.355469 78.097656 14.40625 78.019531 14.40625 " fill-opacity="1" fill-rule="nonzero"/></g><g clip-path="url(#9a8de9cc52)"><path fill="#cb0000" d="M 79.261719 11.851562 C 79.210938 11.851562 79.160156 11.832031 79.125 11.789062 C 79.0625 11.714844 79.070312 11.601562 79.144531 11.539062 C 79.71875 11.054688 80.484375 10.796875 81.195312 10.839844 C 81.617188 10.867188 82.078125 10.988281 82.488281 11.183594 C 82.578125 11.226562 82.617188 11.332031 82.574219 11.421875 C 82.53125 11.511719 82.425781 11.546875 82.339844 11.507812 C 81.964844 11.328125 81.550781 11.21875 81.171875 11.195312 C 80.550781 11.15625 79.878906 11.386719 79.375 11.808594 C 79.339844 11.839844 79.300781 11.851562 79.261719 11.851562 " fill-opacity="1" fill-rule="nonzero"/></g><g clip-path="url(#970b46673f)"><path fill="#cb0000" d="M 84.3125 13.945312 C 84.230469 13.945312 84.160156 13.890625 84.140625 13.808594 C 83.917969 12.867188 83.496094 12.226562 82.820312 11.789062 C 82.738281 11.734375 82.714844 11.625 82.769531 11.542969 C 82.824219 11.460938 82.933594 11.4375 83.015625 11.492188 C 83.773438 11.980469 84.238281 12.691406 84.484375 13.726562 C 84.507812 13.824219 84.449219 13.917969 84.355469 13.941406 C 84.339844 13.945312 84.328125 13.945312 84.3125 13.945312 " fill-opacity="1" fill-rule="nonzero"/></g><g clip-path="url(#fd1154d7b4)"><path fill="#cb0000" d="M 79.058594 11.167969 C 79.003906 11.167969 78.949219 11.144531 78.914062 11.097656 C 78.855469 11.019531 78.871094 10.90625 78.953125 10.847656 C 79.5625 10.394531 80.261719 10.144531 80.964844 10.132812 C 81.066406 10.128906 81.144531 10.210938 81.144531 10.308594 C 81.148438 10.40625 81.070312 10.484375 80.972656 10.488281 C 80.34375 10.5 79.714844 10.722656 79.164062 11.132812 C 79.132812 11.15625 79.09375 11.167969 79.058594 11.167969 " fill-opacity="1" fill-rule="nonzero"/></g><g clip-path="url(#d332d96f6c)"><path fill="#cb0000" d="M 83.679688 11.546875 C 83.632812 11.546875 83.585938 11.527344 83.550781 11.488281 C 83.042969 10.953125 82.277344 10.582031 81.503906 10.496094 C 81.40625 10.488281 81.335938 10.398438 81.34375 10.300781 C 81.355469 10.203125 81.441406 10.132812 81.539062 10.144531 C 82.398438 10.238281 83.246094 10.648438 83.808594 11.246094 C 83.875 11.316406 83.871094 11.429688 83.800781 11.496094 C 83.765625 11.53125 83.722656 11.546875 83.679688 11.546875 " fill-opacity="1" fill-rule="nonzero"/></g></svg>